<svg xmlns="http://www.w3.org/2000/svg" xmlns:xlink="http://www.w3.org/1999/xlink" version="1.1" x="0px" y="0px" width="100px" height="100px" viewBox="0 0 100 100" enable-background="new 0 0 100 100" xml:space="preserve">
<g id="Captions">
</g>
<g id="Your_Icon">
	<polygon points="76.389,39.709 76.17,43.072 78.734,43.346 75.186,76.619 31.658,71.979 31.668,71.889 28.305,71.669    27.953,74.969 78.178,80.324 82.439,40.354  "/>
	<path d="M19,27v40.197h3.922h5.86h3.386h37.341V42.361v-3.386v-1.521v-4.43V27H19z M66.142,42.003V63.83H32.527h-3.387h-6.773   V30.367h43.774v8.249V42.003z"/>
	<polygon points="70.561,34.148 70.561,36.469 73.215,36.642 73.182,37.167 73.038,39.352 72.818,42.715 70.965,71.082    70.439,71.048 32.025,68.538 28.662,68.318 27.609,68.249 23.908,68.249 23.772,70.318 28.417,70.622 31.78,70.842 73.123,73.543    75.122,42.96 75.342,39.598 75.676,34.482  "/>
	<polygon points="30.231,55.667 43.7,33.148 59.063,55.667  "/>
	<polygon points="45.885,53.563 54.066,39.883 63.399,53.563  "/>
</g>
</svg>